<?xml version="1.0" standalone="no"?>
<!DOCTYPE svg PUBLIC "-//W3C//DTD SVG 20010904//EN"
 "http://www.w3.org/TR/2001/REC-SVG-20010904/DTD/svg10.dtd">
<svg version="1.0" xmlns="http://www.w3.org/2000/svg"
 width="700.000000pt" height="700.000000pt" viewBox="0 0 700.000000 700.000000"
 preserveAspectRatio="xMidYMid meet">
<metadata>
Created by potrace 1.11, written by Peter Selinger 2001-2013
</metadata>
<g transform="translate(0.000000,700.000000) scale(0.100000,-0.100000)"
fill="#000000" stroke="none">
<path d="M2127 5824 c-1 -1 -96 -4 -210 -8 -114 -3 -226 -10 -247 -16 -80 -22
-130 -89 -147 -197 -6 -43 -6 -1261 1 -3363 2 -703 4 -782 21 -855 26 -118 44
-148 105 -181 32 -16 77 -18 590 -21 681 -5 1071 -5 1130 0 93 8 219 30 340
59 69 16 132 31 140 33 94 20 269 70 320 91 201 81 542 309 651 435 274 314
462 638 554 955 30 103 71 303 80 387 4 32 8 67 10 78 24 125 22 463 -4 582
-5 23 -12 59 -15 80 -3 20 -9 54 -12 75 -15 98 -55 284 -75 347 -104 338 -299
637 -629 965 -228 227 -525 392 -836 465 -11 2 -39 9 -64 16 -25 6 -54 12 -65
14 -11 2 -47 8 -80 14 -144 25 -194 28 -510 37 -220 6 -1043 12 -1048 8z
m1343 -1029 c41 -9 80 -18 85 -19 6 -1 40 -12 77 -25 154 -52 292 -136 410
-251 161 -156 240 -316 296 -596 45 -222 56 -302 56 -409 0 -74 -11 -234 -20
-278 -2 -10 -6 -40 -9 -65 -6 -50 -44 -201 -55 -217 -3 -5 -17 -34 -29 -63
-76 -181 -230 -373 -385 -480 -151 -104 -271 -150 -516 -197 -58 -11 -401 -14
-465 -4 -77 13 -133 38 -183 84 -41 37 -86 116 -97 171 -9 45 -18 449 -17 759
2 629 2 1055 -1 1140 -1 50 3 120 9 158 6 37 10 67 8 67 -8 0 40 98 62 127 22
29 100 83 129 90 5 1 26 6 45 11 19 5 66 10 105 11 38 1 71 4 73 6 12 11 356
-5 422 -20z"/>
</g>
</svg>
