<?xml version="1.0" encoding="UTF-8" standalone="no"?>
<!-- Created with Inkscape (http://www.inkscape.org/) -->

<svg
   xmlns:dc="http://purl.org/dc/elements/1.1/"
   xmlns:cc="http://creativecommons.org/ns#"
   xmlns:rdf="http://www.w3.org/1999/02/22-rdf-syntax-ns#"
   xmlns:svg="http://www.w3.org/2000/svg"
   xmlns="http://www.w3.org/2000/svg"
   xmlns:sodipodi="http://sodipodi.sourceforge.net/DTD/sodipodi-0.dtd"
   xmlns:inkscape="http://www.inkscape.org/namespaces/inkscape"
   width="530"
   height="126"
   viewBox="0 0 530 126"
   id="svg4585"
   version="1.1"
   inkscape:version="0.91 r13725"
   sodipodi:docname="donier-logo.svg">
  <defs
     id="defs4587">
    <clipPath
       id="clipPath4279"
       clipPathUnits="userSpaceOnUse">
      <path
         inkscape:connector-curvature="0"
         id="path4281"
         d="m 0,595.28 841.89,0 L 841.89,0 0,0 0,595.28 Z" />
    </clipPath>
  </defs>
  <sodipodi:namedview
     id="base"
     pagecolor="#ffffff"
     bordercolor="#666666"
     borderopacity="1.0"
     inkscape:pageopacity="0.0"
     inkscape:pageshadow="2"
     inkscape:zoom="0.7"
     inkscape:cx="268.02028"
     inkscape:cy="-171.76187"
     inkscape:document-units="px"
     inkscape:current-layer="layer1"
     showgrid="false"
     fit-margin-top="1"
     fit-margin-left="1"
     fit-margin-right="1"
     fit-margin-bottom="1"
     units="px"
     inkscape:snap-page="true"
     inkscape:window-width="1916"
     inkscape:window-height="1044"
     inkscape:window-x="0"
     inkscape:window-y="34"
     inkscape:window-maximized="0" />
  <metadata
     id="metadata4590">
    <rdf:RDF>
      <cc:Work
         rdf:about="">
        <dc:format>image/svg+xml</dc:format>
        <dc:type
           rdf:resource="http://purl.org/dc/dcmitype/StillImage" />
        <dc:title></dc:title>
      </cc:Work>
    </rdf:RDF>
  </metadata>
  <g
     inkscape:label="Layer 1"
     inkscape:groupmode="layer"
     id="layer1"
     transform="translate(424.58465,-268.0564)">
    <g
       id="g4275"
       transform="matrix(1.2343639,0,0,-1.2343639,-679.18414,698.45221)"
       style="fill:#ffffff;fill-opacity:1">
      <g
         clip-path="url(#clipPath4279)"
         id="g4277"
         style="fill:#ffffff;fill-opacity:1">
        <g
           transform="translate(315.9684,334.649)"
           id="g4283"
           style="fill:#ffffff;fill-opacity:1">
          <path
             inkscape:connector-curvature="0"
             id="path4285"
             style="fill:#ffffff;fill-opacity:1;fill-rule:nonzero;stroke:none"
             d="m 0,0 c 2.973,-0.853 5.092,-2.098 6.671,-3.914 1.538,-1.769 2.345,-3.911 2.877,-5.578 0.691,-2.168 0.857,-4.516 0.509,-7.177 l -0.092,-0.742 c -0.129,-1.079 -0.262,-2.195 -0.616,-3.247 -1.095,-3.244 -3.056,-5.677 -5.828,-7.229 -1.727,-0.969 -3.643,-1.535 -5.858,-1.731 -0.8,-0.071 -1.547,-0.108 -2.251,-0.108 -1.712,0 -3.174,0.214 -4.569,0.655 -2.058,0.652 -3.908,1.909 -5.823,3.958 -2.337,2.5 -3.016,5.579 -3.347,7.981 -0.099,0.722 -0.147,1.451 -0.201,2.298 -0.055,0.842 -0.064,1.62 0.046,2.458 0.119,0.899 0.256,1.933 0.449,2.956 0.361,1.922 1.471,3.42 2.677,4.91 2.09,2.584 4.405,4.079 7.074,4.571 C -5.994,0.483 -2.99,0.857 0,0 m -4.07,13.051 c -1.254,-0.002 -2.51,-0.091 -3.737,-0.239 -1.307,-0.157 -2.603,-0.391 -3.882,-0.7 -0.09,-0.022 -0.179,-0.044 -0.269,-0.066 l -0.034,-0.008 c -0.747,-0.224 -1.485,-0.481 -2.222,-0.737 -0.507,-0.176 -1.015,-0.353 -1.523,-0.519 -0.509,-0.166 -1.095,-0.375 -1.58,-0.679 -1.479,-0.932 -2.776,-1.8 -3.963,-2.655 l -0.597,-0.424 c -0.914,-0.645 -1.857,-1.311 -2.598,-2.103 -3.055,-3.261 -5.034,-6.664 -6.05,-10.403 -0.633,-2.331 -0.941,-4.491 -0.942,-6.603 0,-0.837 -0.035,-1.673 -0.07,-2.51 -0.071,-1.694 -0.145,-3.446 0.101,-5.157 0.397,-2.765 1.26,-5.457 2.565,-8.002 1.566,-3.059 3.827,-5.896 7.114,-8.931 0.182,-0.168 0.415,-0.31 0.64,-0.439 2.76,-1.565 5.784,-3.141 9.182,-4.055 2.423,-0.652 4.615,-1.184 6.948,-1.117 2.575,0.076 5.22,0.289 7.747,0.81 0.113,0.023 0.226,0.048 0.339,0.073 1.857,0.419 3.625,1.253 5.333,2.058 0.675,0.317 1.349,0.634 2.031,0.93 1.287,0.556 2.257,1.198 3.052,2.017 0.768,0.791 1.591,1.584 2.516,2.424 0.852,0.773 1.596,1.658 2.245,2.607 0.672,0.981 1.183,2.043 1.79,3.062 0.085,0.143 0.173,0.285 0.265,0.425 1.584,2.41 2.193,5.227 2.616,7.911 0.39,2.48 0.492,5.022 0.302,7.552 -0.181,2.442 -0.557,4.639 -1.147,6.718 -0.833,2.929 -1.838,5.193 -3.162,7.123 -1.541,2.246 -3.353,4.164 -5.388,5.698 -1.651,1.244 -3.439,2.514 -5.546,3.174 -1.793,0.562 -3.586,1.123 -5.375,1.695 l -0.136,0.044 c -1.253,0.401 -2.499,0.732 -3.812,0.881 -0.907,0.103 -1.829,0.147 -2.753,0.145" />
        </g>
        <g
           transform="translate(602.7593,331.4029)"
           id="g4287"
           style="fill:#ffffff;fill-opacity:1">
          <path
             inkscape:connector-curvature="0"
             id="path4289"
             style="fill:#ffffff;fill-opacity:1;fill-rule:nonzero;stroke:none"
             d="M 0,0 C 0.007,0.496 0.086,1.012 0.237,1.534 0.629,2.9 1.6,3.699 2.97,3.782 L 3.802,3.834 C 5.265,3.928 6.77,4.028 8.271,3.981 9.462,3.946 10.756,3.756 12.34,3.382 c 0.862,-0.203 1.604,-0.806 1.968,-1.148 1.682,-1.576 2.398,-3.703 2.186,-6.503 -0.124,-1.649 -0.676,-3.017 -1.687,-4.18 -1.042,-1.203 -2.498,-1.899 -4.446,-2.129 -1.014,-0.12 -2.044,-0.137 -3.052,-0.137 -0.508,0 -1.015,0.002 -1.523,0.002 -1.078,0.009 -1.988,0.028 -2.829,0.104 -1.6,0.146 -2.694,1.258 -2.856,2.902 -0.09,0.772 -0.088,1.538 -0.085,2.315 l -0.028,1.906 C -0.015,-2.324 -0.019,-1.162 0,0 m -4.738,-38.389 c 1.1,0.034 2.137,0.066 3.138,0.427 0.714,0.259 1.083,0.662 1.274,1.39 0.335,1.283 0.334,2.581 0.333,3.956 l 0.007,1.706 c 0.01,1.789 0.021,3.64 0.105,5.462 0.083,1.874 1.5,3.156 3.41,3.14 0.554,-0.005 1.1,-0.104 1.653,-0.129 2.264,-0.104 4.003,-1.284 5.166,-3.508 0.816,-1.562 1.749,-3.066 2.629,-4.592 0.829,-1.435 1.66,-2.87 2.468,-4.319 0.466,-0.842 0.949,-1.648 1.697,-2.251 1.283,-1.035 2.873,-1.245 4.117,-1.311 1.337,-0.072 2.675,0.041 4.013,0.049 1.34,0.008 2.68,-0.053 4.02,-0.059 0.843,-0.005 1.974,0.26 2.143,1.248 0.01,0.055 0.015,0.11 0.017,0.166 0.013,0.375 -0.133,0.864 -0.428,1.416 -0.543,1.034 -1.169,2.058 -1.776,3.049 l -2.262,3.68 c -1.239,2.015 -2.478,4.03 -3.7,6.057 -0.369,0.614 -0.615,1.307 -0.69,1.95 -0.185,1.537 0.376,2.98 1.624,4.175 0.949,0.91 1.743,2.01 2.423,3.365 0.579,1.152 1.306,2.24 1.731,3.464 0.872,2.514 1.171,4.854 0.914,7.15 -0.035,0.307 -0.064,0.614 -0.094,0.921 -0.102,1.11 -0.268,2.178 -0.546,3.258 -0.44,1.727 -0.894,3.514 -1.941,4.95 -0.95,1.306 -2.143,2.412 -3.157,3.666 -1.279,1.581 -3.007,2.714 -5.439,3.566 -3.903,1.367 -7.274,1.869 -10.63,1.572 C 6.244,15.116 4.977,15.193 3.756,15.269 2.43,15.35 1.121,15.37 -0.206,15.313 -0.687,15.292 -1.165,15.268 -1.644,15.22 c -0.601,-0.062 -1.223,-0.126 -1.845,-0.019 -2.424,0.424 -4.826,0.19 -6.651,-0.057 -1.116,-0.152 -1.823,-0.677 -2.227,-1.653 -0.352,-0.848 -0.398,-1.708 -0.397,-2.438 0,-0.192 0,-0.384 0,-0.575 0,-0.537 10e-4,-1.074 10e-4,-1.61 0,-0.825 10e-4,-1.649 0.002,-2.474 0,-1.055 10e-4,-2.111 10e-4,-3.167 10e-4,-1.229 0.002,-2.459 0.003,-3.689 0,-1.346 10e-4,-2.693 0.002,-4.04 0.001,-1.407 0.002,-2.814 0.003,-4.222 l 0.002,-4.231 c 10e-4,-1.357 0.002,-2.713 0.003,-4.07 0,-1.247 10e-4,-2.493 0.002,-3.739 0,-1.079 10e-4,-2.158 0.002,-3.237 10e-4,-1.427 10e-4,-2.855 0.002,-4.283 10e-4,-0.758 0.092,-1.513 0.089,-2.272 -0.003,-0.956 0.002,-1.912 0.018,-2.867 0.009,-0.791 0.019,-1.538 0.134,-2.271 0.282,-1.805 1.091,-2.576 2.787,-2.663 1.659,-0.086 3.316,-0.092 4.975,-0.032" />
        </g>
        <g
           transform="translate(416.5515,294.9056)"
           id="g4291"
           style="fill:#ffffff;fill-opacity:1">
          <path
             inkscape:connector-curvature="0"
             id="path4293"
             style="fill:#ffffff;fill-opacity:1;fill-rule:nonzero;stroke:none"
             d="m 0,0 c 0.083,0.405 0.125,0.841 0.128,1.297 l 0.024,3.481 c 0.039,5.799 0.078,11.598 0.084,17.396 0.002,1.352 -0.043,2.702 -0.088,4.053 -0.038,1.178 -0.076,2.355 -0.085,3.533 -0.017,2.261 0.013,4.523 0.043,6.784 0.012,0.923 0.072,1.85 0.072,2.772 0.056,1.076 0.054,2.145 0.012,3.222 l -0.078,2.946 c -0.026,1.235 -0.053,2.47 -0.097,3.705 -0.05,1.448 -1.16,2.552 -2.581,2.569 -2.512,0.03 -5.021,0.038 -7.533,0.005 -1.765,-0.022 -2.951,-1.256 -2.951,-3.071 l -0.002,-1.186 c -0.002,-0.905 -0.005,-1.81 0.005,-2.715 0.009,-0.829 0.024,-1.656 0.041,-2.484 0.017,-0.911 0.034,-1.823 0.042,-2.734 0.01,-1.293 0.008,-2.586 0.006,-3.879 -0.002,-1.043 -0.063,-2.081 -0.091,-3.123 -0.026,-1.003 -0.013,-2.004 -0.08,-3.006 -0.022,-0.339 -0.042,-0.678 -0.042,-1.018 -0.043,-1.146 -0.613,-1.613 -1.085,-1.803 -0.483,-0.197 -1.231,-0.271 -2.041,0.485 -0.811,0.757 -1.597,1.538 -2.386,2.318 -0.987,0.979 -1.974,1.956 -2.976,2.92 -0.604,0.578 -1.22,1.144 -1.836,1.709 -0.89,0.816 -1.781,1.632 -2.63,2.487 -2.292,2.305 -4.567,4.625 -6.842,6.946 -1.725,1.758 -3.449,3.517 -5.18,5.268 -1.358,1.374 -2.774,2.233 -4.328,2.623 -0.319,0.081 -0.614,0.121 -0.886,0.121 -0.415,0 -0.774,-0.093 -1.075,-0.277 -0.485,-0.298 -0.82,-0.84 -0.996,-1.61 -0.093,-0.412 -0.094,-0.866 -0.097,-1.347 l -0.009,-2.537 c -0.033,-8.493 -0.066,-16.985 -0.08,-25.479 -0.003,-1.678 0.02,-3.356 0.042,-5.033 0.017,-1.233 0.033,-2.466 0.04,-3.697 0.01,-1.789 0.012,-3.579 0.014,-5.368 0.002,-1.915 0.005,-3.831 0.016,-5.746 0.007,-1.046 0.513,-1.802 1.39,-2.075 0.284,-0.088 0.571,-0.177 0.865,-0.227 0.482,-0.084 0.992,-0.054 1.48,-0.065 0.822,-0.021 1.644,-0.039 2.466,-0.054 1.339,-0.025 2.678,-0.04 4.017,-0.028 0.067,10e-4 0.133,0.002 0.2,0.002 0.673,0.006 1.551,0.192 1.911,1.044 0.385,0.905 0.58,1.653 0.596,2.286 0.083,3.094 0.102,6.19 0.123,9.285 0,1.638 0.022,3.277 0.024,4.915 10e-4,1.487 0.003,2.974 0.031,4.461 0.015,0.822 0.133,1.584 0.35,2.264 0.154,0.48 0.485,0.83 0.933,0.987 0.478,0.169 1.023,0.087 1.491,-0.227 0.872,-0.575 1.496,-1.494 2.254,-2.203 l 2.909,-2.762 c 1.65,-1.563 3.301,-3.126 4.936,-4.706 1.714,-1.656 3.346,-3.309 5.149,-5.143 1.227,-1.248 2.447,-2.504 3.668,-3.758 1.218,-1.254 2.437,-2.507 3.662,-3.754 1.155,-1.174 2.465,-2.294 4.215,-2.541 C -1.161,-2.008 -0.295,-1.461 0,0" />
        </g>
        <g
           transform="translate(231.5232,305.2383)"
           id="g4295"
           style="fill:#ffffff;fill-opacity:1">
          <path
             inkscape:connector-curvature="0"
             id="path4297"
             style="fill:#ffffff;fill-opacity:1;fill-rule:nonzero;stroke:none"
             d="m 0,0 c -1.592,-0.458 -3.306,-0.688 -5.119,-0.688 -0.816,0 -1.652,0.047 -2.506,0.139 -1.947,0.213 -3.265,1.642 -3.357,3.641 -0.022,0.463 -0.016,0.927 -0.01,1.39 0.006,0.388 0.011,0.775 -0.002,1.162 -0.022,0.717 -0.055,1.433 -0.088,2.149 -0.101,2.172 -0.139,4.326 -0.014,6.497 0.048,0.84 0.096,1.681 0.1,2.521 0.01,1.709 -0.015,3.418 -0.039,5.126 -0.023,1.578 -0.223,3.285 0.101,4.84 0.382,1.824 1.524,2.785 3.492,2.936 0.852,0.066 1.708,0.102 2.561,0.132 2.393,0.086 4.555,-0.291 6.45,-1.117 3.908,-1.703 6.314,-4.692 7.15,-8.883 C 8.99,18.492 9.269,17.047 9.437,15.572 9.578,14.332 9.439,13.089 9.291,11.856 9.144,10.636 8.999,9.399 8.549,8.245 6.868,3.922 3.992,1.148 0,0 m 6.042,-10.4 c 2.454,0.804 4.559,2.313 6.596,3.773 0.569,0.408 1.11,0.795 1.504,1.251 2.285,2.649 3.9,4.971 5.08,7.308 1.694,3.354 2.594,7.253 2.832,12.269 0.096,2.02 -0.256,3.949 -0.629,5.991 l -0.23,1.282 c -0.695,4.04 -2.555,7.731 -5.687,11.282 -1.136,1.288 -2.259,2.53 -3.509,3.561 -2.145,1.769 -4.543,3.046 -7.126,3.799 -2.343,0.684 -4.441,1.063 -6.411,1.163 -2.72,0.135 -5.498,0.156 -8.184,0.175 -0.985,0.007 -1.97,0.014 -2.955,0.026 l -0.458,-0.028 -1.235,0.003 c -0.95,0.004 -1.895,0.008 -2.84,-0.008 -0.912,-0.015 -1.822,-0.048 -2.733,-0.082 l -1.34,-0.048 c -1.319,-0.043 -2.072,-0.633 -2.365,-1.857 -0.134,-0.555 -0.198,-1.207 -0.197,-1.995 0.026,-15.206 0.057,-30.409 0.125,-45.615 0.003,-0.947 0.249,-1.921 0.461,-2.664 0.307,-1.074 1.185,-1.316 1.867,-1.332 l 0.369,-0.009 c 3.146,-0.072 6.395,-0.146 9.591,-0.086 l 0.441,0.008 c 0.689,0.013 1.389,0.026 2.094,0.026 0.633,0 1.27,-0.011 1.907,-0.041 3.606,-0.164 6.511,0.103 9.123,0.866 0.593,0.172 1.199,0.307 1.804,0.442 0.733,0.163 1.427,0.317 2.105,0.54" />
        </g>
        <g
           transform="translate(532.0499,293.1798)"
           id="g4299"
           style="fill:#ffffff;fill-opacity:1">
          <path
             inkscape:connector-curvature="0"
             id="path4301"
             style="fill:#ffffff;fill-opacity:1;fill-rule:nonzero;stroke:none"
             d="m 0,0 c 0.968,-0.008 1.924,-0.186 2.891,-0.204 1.384,-0.024 2.773,-0.019 4.156,-0.014 1.399,0.004 2.802,-0.044 4.2,-0.019 2.065,0.043 4.13,0.086 6.195,0.14 1.443,0.038 2.548,1.14 2.57,2.562 0.032,2.075 0.027,4.15 0.001,6.226 -0.015,1.133 -0.742,2.05 -1.766,2.225 -1.208,0.209 -2.541,0.32 -3.963,0.333 -2.49,0.023 -4.979,-0.1 -7.468,-0.083 -1.445,0.006 -3.014,0.077 -4.798,0.218 -1.672,0.132 -2.799,1.3 -2.871,2.974 -0.062,1.46 -0.062,2.867 0.001,4.181 0.086,1.848 1.276,3.173 3.105,3.456 1.06,0.165 2.159,0.075 3.224,0.002 0.573,-0.039 1.154,-0.085 1.714,-0.068 2.68,0.042 5.362,0.124 8.041,0.207 l 0.396,0.012 c 0.742,0.023 1.649,0.298 1.759,1.473 0.222,2.368 0.398,4.504 0.309,6.647 -0.101,2.463 -1.857,2.999 -3.312,3.017 -1.653,0.02 -3.311,0.014 -4.965,0.006 L 5.652,33.276 C 4.498,33.267 3.34,33.255 2.186,33.297 c -1.43,0.051 -2.437,0.837 -2.836,2.216 -0.318,1.096 -0.392,2.269 -0.226,3.588 0.205,1.634 1.015,2.52 2.546,2.785 1.988,0.345 4.165,0.478 6.653,0.429 2.66,-0.06 5.518,-0.109 8.371,-0.058 1.06,0.019 2.53,0.909 2.536,2.534 l 0.005,1.291 c 0.008,1.549 0.016,3.097 -0.02,4.642 -0.034,1.474 -0.636,2.241 -1.953,2.489 -1.271,0.238 -2.312,0.354 -3.273,0.368 -2.145,0.032 -4.289,-0.084 -6.435,-0.084 -1.746,0 -3.492,0.1 -5.238,0.1 -2.603,0.018 -5.207,0.032 -7.81,-0.005 -1.192,-0.017 -2.383,-0.071 -3.574,-0.124 -0.713,-0.033 -1.424,-0.064 -2.135,-0.089 -1.498,-0.051 -2.367,-0.912 -2.385,-2.365 -0.02,-1.521 -0.015,-3.042 -0.011,-4.561 0.005,-1.66 0.002,-3.32 0.002,-4.98 -0.001,-3.051 -0.002,-6.104 -0.015,-9.157 -0.003,-0.704 -0.022,-1.407 -0.04,-2.11 -0.024,-0.9 -0.048,-1.801 -0.04,-2.701 0.007,-0.666 0.047,-1.333 0.089,-1.999 0.045,-0.751 0.09,-1.501 0.09,-2.252 -10e-4,-2.461 -0.024,-4.921 -0.047,-7.381 l -0.036,-4.193 c -0.006,-1.045 -0.002,-2.091 0.004,-3.136 0.003,-0.903 0.007,-1.805 -0.012,-2.707 -0.033,-1.427 -0.065,-2.775 0.33,-4.097 0.279,-0.933 1.232,-1.6 2.199,-1.712 1.434,-0.165 2.597,-0.243 3.713,-0.227 1.269,0.012 2.539,0.057 3.809,0.101 C -2.369,-0.057 -1.185,-0.016 0,0" />
        </g>
        <g
           transform="translate(456.3596,293.2071)"
           id="g4303"
           style="fill:#ffffff;fill-opacity:1">
          <path
             inkscape:connector-curvature="0"
             id="path4305"
             style="fill:#ffffff;fill-opacity:1;fill-rule:nonzero;stroke:none"
             d="m 0,0 c 1.777,-0.077 3.555,-0.102 5.333,-0.13 0.961,-0.016 1.922,-0.021 2.883,-0.01 1.422,0.012 2.839,-0.044 4.26,-0.069 0.695,0.006 1.39,0.027 2.085,0.046 0.845,0.026 1.691,0.051 2.535,0.051 0.754,0 1.501,-0.038 2.251,-0.111 0.818,-0.078 1.594,-0.15 2.374,-0.045 1.322,0.181 2.329,1.219 2.347,2.416 0.028,2.038 0.018,4.077 0.005,6.115 -0.005,0.82 -0.373,1.486 -1.123,2.037 -0.706,0.518 -1.578,0.613 -2.501,0.713 -1.936,0.211 -3.185,1.532 -3.195,3.365 -0.012,2.407 0.006,4.816 0.024,7.223 l 0.024,3.698 c 0.005,0.644 0.01,1.289 -0.015,1.932 -0.02,0.543 -0.054,1.083 -0.089,1.624 -0.059,0.921 -0.121,1.875 -0.107,2.823 0.032,2.185 0.132,4.492 0.302,7.05 0.105,1.547 0.421,3.108 2.993,3.73 0.542,0.13 1.076,0.258 1.596,0.424 0.937,0.297 1.437,0.846 1.528,1.679 0.087,0.78 0.115,1.568 0.143,2.354 0.023,0.641 -0.026,1.277 -0.024,1.917 0.005,0.646 0.009,1.291 -0.007,1.937 -0.037,1.439 -1.266,2.67 -2.682,2.687 -1.796,0.022 -3.594,0.023 -5.392,0.024 -1.332,0.001 -2.665,0.031 -3.997,-10e-4 C 10.242,53.448 8.941,53.303 7.63,53.266 6.259,53.227 4.885,53.248 3.516,53.336 2.557,53.4 1.595,53.48 0.634,53.444 c -0.926,-0.035 -1.571,-0.461 -1.973,-1.305 -0.367,-0.772 -0.403,-1.598 -0.343,-2.6 0.017,-0.293 0.04,-0.586 0.063,-0.881 0.074,-0.961 0.151,-1.954 0.057,-2.94 -0.177,-1.839 0.746,-3.04 2.531,-3.295 1.855,-0.267 2.993,-1.224 3.379,-2.845 0.17,-0.718 0.258,-1.36 0.266,-1.965 0.035,-2.454 0.057,-4.909 0.08,-7.364 L 4.741,25.42 C 4.75,24.684 4.768,23.95 4.788,23.215 4.813,22.247 4.838,21.28 4.839,20.312 L 4.84,19.792 C 4.845,18.112 4.849,16.374 4.738,14.665 4.626,12.925 3.68,11.712 2.073,11.248 1.262,11.014 0.47,10.721 -0.339,10.481 -1.32,10.191 -1.839,9.564 -1.929,8.563 -2.053,7.17 -2.108,5.784 -2.152,4.13 -2.171,3.447 -2.17,2.724 -2.04,2.057 -1.784,0.721 -1.116,0.048 0,0" />
        </g>
        <g
           transform="translate(390.2666,259.8696)"
           id="g4307"
           style="fill:#ffffff;fill-opacity:1">
          <path
             inkscape:connector-curvature="0"
             id="path4309"
             style="fill:#ffffff;fill-opacity:1;fill-rule:nonzero;stroke:none"
             d="m 0,0 c -1.045,-0.95 -2.333,-1.158 -3.455,-1.235 -2.514,-0.173 -4.938,-0.176 -7.268,-0.011 -0.953,0.068 -1.209,0.746 -1.256,1.303 -0.107,1.293 -0.164,2.599 -0.169,3.896 -0.004,1.16 -0.006,2.319 0.009,3.478 0.01,0.798 0.037,1.846 0.146,2.887 0.099,0.953 0.443,1.276 1.363,1.283 0.566,0.005 1.134,0.015 1.702,0.026 1.882,0.032 3.827,0.068 5.708,-0.13 C -0.198,11.176 1.796,9.324 2.25,6.416 2.647,3.878 1.89,1.72 0,0 m 0.142,-1.61 c 0.575,0.438 1.194,0.828 1.667,1.377 2.465,2.857 2.642,7.14 0.419,10.183 -1.619,2.215 -3.957,3.264 -6.961,3.134 C -5.294,13.06 -5.854,13 -6.415,13.003 c -0.737,0.004 -1.473,0.015 -2.21,0.027 -0.876,0.015 -1.751,0.029 -2.626,0.029 -1.387,-10e-4 -2.228,-0.844 -2.248,-2.255 l -0.016,-1.16 c -0.029,-1.997 -0.058,-3.992 -0.066,-5.987 -0.01,-2.667 0.034,-5.337 -0.023,-8.002 0,-0.981 -0.1,-1.959 -0.089,-2.94 0.011,-0.98 0.01,-1.965 0.144,-2.937 0.029,-0.211 0.173,-0.373 0.3,-0.515 0.121,-0.136 0.224,-0.287 0.33,-0.434 -0.029,0.043 0.282,0.397 0.311,0.433 0.115,0.137 0.246,0.293 0.274,0.494 0.099,0.69 0.161,1.366 0.182,2.012 0.02,0.579 0.027,1.157 0.035,1.736 0.01,0.742 0.02,1.482 0.055,2.222 0.036,0.774 0.472,1.219 1.226,1.253 2.212,0.099 4.437,0.13 6.127,0.146 l 0.034,0 c 1.214,0 2.139,-0.587 2.749,-1.746 0.395,-0.749 0.855,-1.466 1.289,-2.193 0.792,-1.33 1.585,-2.659 2.411,-4.013 0.122,-0.203 0.375,-0.622 0.754,-0.622 0.096,0 0.2,0.027 0.313,0.091 0.15,0.087 0.245,0.204 0.281,0.347 0.065,0.256 -0.084,0.497 -0.203,0.691 -0.026,0.043 -0.052,0.084 -0.073,0.123 -0.648,1.202 -1.304,2.4 -1.96,3.596 -0.333,0.582 -0.641,1.179 -0.972,1.762 -0.212,0.376 -0.432,0.765 -0.618,1.157 -0.324,0.68 -0.237,1.123 0.318,1.635 0.168,0.155 0.346,0.298 0.528,0.437" />
        </g>
        <g
           transform="translate(427.2099,254.6326)"
           id="g4311"
           style="fill:#ffffff;fill-opacity:1">
          <path
             inkscape:connector-curvature="0"
             id="path4313"
             style="fill:#ffffff;fill-opacity:1;fill-rule:nonzero;stroke:none"
             d="m 0,0 c -1.562,-2.949 -4.002,-4.673 -7.252,-5.125 -2.577,-0.361 -5.008,-0.036 -7.224,0.964 -1.373,0.622 -2.532,1.68 -3.645,3.329 -1.164,1.724 -1.791,3.81 -1.766,5.878 -0.003,2.746 0.422,4.906 1.377,7.006 0.552,1.213 1.749,2.073 2.724,2.928 l 0.387,0.341 c 1.048,0.924 2.321,1.219 3.877,1.508 0.766,0.143 1.527,0.214 2.284,0.214 1.183,0 2.351,-0.174 3.493,-0.521 1.926,-0.585 3.521,-1.646 4.739,-3.153 C 0.028,12.09 0.564,10.535 0.916,9.324 1.086,8.739 1.084,8.124 1.139,7.521 1.43,4.356 1.078,2.036 0,0 m -3.422,17.126 c -1.631,0.927 -3.525,1.379 -6.141,1.467 l -0.021,0 c -0.456,-0.026 -0.915,-0.009 -1.368,-0.08 -1.315,-0.206 -2.514,-0.694 -3.831,-1.263 -2.675,-1.152 -4.602,-3.316 -5.89,-6.618 -1.007,-2.576 -0.787,-5.233 -0.401,-7.721 0.308,-1.989 1.096,-3.756 2.341,-5.25 1.779,-2.133 3.724,-3.437 5.948,-3.986 0.877,-0.217 1.776,-0.335 2.676,-0.402 0.832,-0.061 1.746,-0.17 2.569,-0.002 2.703,0.551 4.844,1.59 6.548,3.177 2.216,2.061 3.443,4.84 3.751,8.493 0.141,1.68 -0.09,3.45 -0.728,5.571 -0.847,2.812 -2.682,5.038 -5.453,6.614" />
        </g>
        <g
           transform="translate(497.1239,260.2093)"
           id="g4315"
           style="fill:#ffffff;fill-opacity:1">
          <path
             inkscape:connector-curvature="0"
             id="path4317"
             style="fill:#ffffff;fill-opacity:1;fill-rule:nonzero;stroke:none"
             d="m 0,0 c 0.125,-2.873 -0.781,-5.457 -2.69,-7.681 -1.269,-1.478 -2.942,-2.443 -4.974,-2.867 -2.632,-0.553 -5.255,-0.316 -7.799,0.697 -1.412,0.563 -2.594,1.599 -3.834,3.36 -1.179,1.678 -1.798,3.683 -1.842,5.959 -0.049,2.618 0.45,5.034 1.482,7.184 0.601,1.254 1.874,2.076 2.876,2.986 1.096,0.995 2.487,1.322 4.06,1.618 0.759,0.144 1.516,0.215 2.268,0.215 1.174,0 2.334,-0.173 3.469,-0.522 C -4.935,10.321 -3.33,9.235 -2.215,7.72 -0.825,5.833 -0.133,3.979 -0.098,2.052 -0.086,1.367 -0.038,0.683 0,0 m -4.839,11.642 c -2.325,1.212 -4.945,1.64 -7.581,1.235 -2.14,-0.328 -4.058,-1.14 -5.546,-2.345 -3.165,-2.565 -4.723,-5.931 -4.629,-10.003 0.015,-0.679 0.11,-1.35 0.187,-2.023 0.086,-0.741 0.174,-1.507 0.354,-2.244 0.736,-2.987 2.558,-5.327 5.573,-7.158 1.934,-1.173 4.074,-1.383 6.097,-1.436 0.591,-0.015 1.186,-0.017 1.774,0.056 1.204,0.155 2.295,0.709 3.414,1.143 1.504,0.583 2.781,1.598 4.141,3.295 1.665,2.079 2.507,4.7 2.577,8.015 0.035,1.49 -0.192,2.997 -0.715,4.741 -0.893,2.974 -2.792,5.236 -5.646,6.724" />
        </g>
        <g
           transform="translate(533.5261,268.9179)"
           id="g4319"
           style="fill:#ffffff;fill-opacity:1">
          <path
             inkscape:connector-curvature="0"
             id="path4321"
             style="fill:#ffffff;fill-opacity:1;fill-rule:nonzero;stroke:none"
             d="m 0,0 c -0.891,0.311 -1.617,-0.998 -2.102,-1.519 -0.78,-0.838 -1.564,-1.673 -2.347,-2.507 l -2.474,-2.643 c -0.782,-0.84 -1.564,-1.68 -2.357,-2.509 -0.483,-0.505 -0.925,-0.751 -1.354,-0.751 -0.432,0.002 -0.88,0.257 -1.372,0.779 -1.105,1.173 -2.253,2.307 -3.352,3.486 -0.675,0.722 -1.336,1.455 -1.997,2.189 -0.525,0.58 -1.049,1.161 -1.579,1.736 -0.481,0.519 -0.926,0.953 -1.361,1.323 -0.433,0.372 -0.78,0.364 -0.993,0.289 -0.519,-0.181 -0.654,-0.82 -0.654,-1.305 l 0,-10.795 c -0.001,-2.259 -0.001,-4.516 0.004,-6.773 0,-0.473 0.115,-1.163 0.69,-1.259 0.019,-0.004 0.038,-0.005 0.056,-0.005 0.27,0 0.517,0.332 0.61,0.56 0.117,0.284 0.07,0.613 0.084,0.913 0.029,0.594 0.06,1.21 0.049,1.818 -0.011,0.664 -0.036,1.327 -0.062,1.99 -0.053,1.375 -0.086,2.743 0.002,4.117 0.032,0.505 0.067,1.028 0.07,1.546 0.005,1.078 -0.013,2.156 -0.031,3.235 -0.011,0.622 -0.022,1.244 -0.028,1.865 -0.003,0.338 -0.002,0.978 0.373,1.142 0.336,0.146 0.711,-0.194 0.92,-0.42 l 6.295,-6.826 c 0.331,-0.362 0.674,-0.735 1.049,-1.07 0.831,-0.748 1.677,-0.733 2.45,0.033 0.762,0.758 1.577,1.611 2.565,2.686 0.54,0.586 1.071,1.181 1.601,1.777 0.465,0.521 0.93,1.043 1.401,1.558 0.532,0.581 1.08,1.148 1.627,1.715 0.275,0.284 0.593,0.74 1.049,0.609 0.082,-0.025 0.331,-0.099 0.339,-0.552 0.008,-0.491 0.003,-0.983 -0.002,-1.474 -0.007,-0.725 -0.008,-1.475 -0.009,-2.21 -0.002,-1.791 -0.004,-3.582 0.004,-5.372 0.002,-0.492 0.015,-0.986 0.029,-1.478 0.044,-1.612 -0.014,-3.222 -0.027,-4.833 -0.002,-0.203 0.021,-0.501 0.138,-0.777 0.063,-0.144 0.354,-0.539 0.639,-0.492 0.259,0.046 0.505,0.302 0.592,0.523 0.092,0.231 0.136,0.512 0.136,0.857 0.003,2.714 0.005,5.428 0.005,8.143 0.001,2.677 -0.006,5.354 0,8.032 0.001,0.575 0.013,1.152 -0.066,1.723 C 0.518,-0.274 0.189,-0.066 0,0" />
        </g>
        <g
           transform="translate(278.7659,260.0165)"
           id="g4323"
           style="fill:#ffffff;fill-opacity:1">
          <path
             inkscape:connector-curvature="0"
             id="path4325"
             style="fill:#ffffff;fill-opacity:1;fill-rule:nonzero;stroke:none"
             d="m 0,0 c -0.51,0.054 -1.053,0.083 -1.759,0.093 -1.047,0.014 -2.091,0.006 -3.136,0.001 -0.2,-0.001 -0.429,-0.012 -0.622,-0.117 -0.047,-0.026 -0.469,-0.266 -0.469,-0.594 0,-0.223 0.194,-0.384 0.349,-0.513 0.141,-0.12 0.274,-0.187 0.462,-0.196 l 0.359,-0.024 c 0.619,-0.04 1.238,-0.08 1.856,-0.102 0.266,-0.01 0.53,-0.007 0.797,-0.005 0.411,0.003 0.799,0.006 1.188,-0.034 0.466,-0.047 0.795,-0.19 0.973,-0.423 C 0.168,-2.136 0.22,-2.461 0.153,-2.882 0,-3.843 -0.336,-4.799 -0.612,-5.525 -1.059,-6.706 -1.71,-7.693 -2.545,-8.46 c -1.485,-1.363 -3.047,-2.075 -4.776,-2.175 -0.286,-0.017 -0.574,-0.038 -0.861,-0.058 -0.892,-0.063 -1.815,-0.133 -2.708,-0.081 -0.539,0.029 -1.071,0.208 -1.634,0.397 -0.201,0.068 -0.401,0.136 -0.603,0.196 -2.031,0.609 -3.646,1.981 -4.939,4.195 -1.054,1.802 -1.593,3.842 -1.601,6.065 l -10e-4,0.19 c -0.005,0.788 -0.009,1.604 0.138,2.365 0.191,0.974 0.495,2.007 0.906,3.067 0.803,2.081 2.277,3.727 4.376,4.891 0.732,0.406 1.519,0.705 2.335,0.891 0.897,0.203 1.809,0.248 2.725,0.248 0.661,0.004 1.332,10e-4 1.959,-0.126 2.376,-0.479 4.171,-1.476 5.502,-3.063 0.183,-0.218 0.613,-0.729 1.082,-0.34 0.462,0.381 0.093,0.848 -0.064,1.049 -0.03,0.037 -0.058,0.072 -0.082,0.106 -1.051,1.48 -2.584,2.568 -4.559,3.238 -2.04,0.694 -4.37,0.771 -6.926,0.232 -2.225,-0.469 -4.202,-1.724 -5.877,-3.729 -2.033,-2.434 -3.035,-5.384 -2.977,-8.766 -0.16,-2.415 0.84,-5.417 1.911,-7.137 1.877,-3.017 4.456,-4.813 7.665,-5.338 0.84,-0.136 1.719,-0.263 2.624,-0.263 0.398,0 0.802,0.023 1.209,0.084 1.011,0.147 1.952,0.509 2.862,0.859 l 0.449,0.173 c 1.504,0.568 2.748,1.533 3.802,2.947 1.309,1.756 2.102,3.785 2.359,6.034 C 1.83,-1.621 1.707,-1.07 1.387,-0.67 1.084,-0.291 0.617,-0.066 0,0" />
        </g>
        <g
           transform="translate(307.3833,253.8625)"
           id="g4327"
           style="fill:#ffffff;fill-opacity:1">
          <path
             inkscape:connector-curvature="0"
             id="path4329"
             style="fill:#ffffff;fill-opacity:1;fill-rule:nonzero;stroke:none"
             d="m 0,0 c -0.142,-0.207 -0.385,-0.334 -0.7,-0.368 -0.671,-0.073 -1.347,-0.072 -2.021,-0.081 -0.492,-0.005 -0.984,-0.006 -1.477,-0.005 -0.496,0.001 -0.993,0.001 -1.49,-0.012 -0.497,-0.012 -0.99,0.005 -1.487,0.006 -0.005,0 -0.01,0 -0.015,0 -1.569,0.054 -3.138,0.11 -4.707,0.173 -0.505,0.02 -0.864,0.174 -1.04,0.445 -0.168,0.259 -0.164,0.626 0.011,1.063 0.57,1.426 1.209,2.855 1.827,4.237 l 0.15,0.336 c 1.109,2.484 2.232,4.962 3.355,7.441 0.193,0.427 0.364,0.884 0.645,1.263 0.141,0.191 0.319,0.297 0.506,0.297 0.189,-0.003 0.372,-0.116 0.515,-0.319 0.133,-0.187 0.234,-0.402 0.307,-0.568 C -3.818,9.849 -2.017,5.79 -0.223,1.726 -0.007,1.237 0.349,0.509 0,0 m 3.262,-2.492 c -1.712,3.909 -3.43,7.815 -5.158,11.716 -0.412,0.93 -0.83,1.859 -1.249,2.786 -0.414,0.915 -0.843,1.824 -1.245,2.743 -0.1,0.227 -0.214,0.459 -0.318,0.687 -0.274,0.601 -0.558,1.223 -0.908,1.801 -0.296,0.488 -0.617,0.591 -0.838,0.592 -0.225,0 -0.56,-0.109 -0.879,-0.628 -0.104,-0.17 -0.19,-0.352 -0.271,-0.533 L -8.905,13.688 C -9.673,11.924 -10.442,10.161 -11.216,8.4 -12.111,6.367 -13.012,4.334 -13.914,2.303 l -1.7,-3.834 c -0.385,-0.868 -0.785,-1.766 -1.151,-2.661 -0.096,-0.234 -0.134,-0.854 0.162,-1.002 0.486,-0.249 0.76,0.225 0.877,0.426 0.153,0.267 0.312,0.532 0.464,0.8 0.211,0.371 0.422,0.743 0.653,1.1 0.357,0.553 0.846,0.855 1.455,0.897 0.24,0.016 0.48,0.035 0.721,0.055 0.599,0.048 1.219,0.098 1.824,0.102 0.623,0.006 1.242,-0.015 1.865,-0.035 0.597,-0.019 1.185,-0.042 1.787,-0.037 1.411,0.006 2.821,0.031 4.232,0.056 l 1.701,0.028 c 1.543,0.081 2.448,-0.434 3.213,-1.839 L 2.286,-3.82 c 0.189,-0.348 0.385,-0.709 0.621,-1.041 0.111,-0.159 0.296,-0.219 0.459,-0.27 0.052,-0.016 0.104,-0.033 0.15,-0.053 0.092,-0.04 0.184,-0.08 0.276,-0.12 0.021,0.098 0.042,0.196 0.062,0.294 0.01,0.049 0.028,0.1 0.044,0.153 0.052,0.155 0.11,0.333 0.053,0.513 -0.222,0.695 -0.447,1.301 -0.689,1.852" />
        </g>
        <g
           transform="translate(461.7729,269.8014)"
           id="g4331"
           style="fill:#ffffff;fill-opacity:1">
          <path
             inkscape:connector-curvature="0"
             id="path4333"
             style="fill:#ffffff;fill-opacity:1;fill-rule:nonzero;stroke:none"
             d="M 0,0 C -0.021,0.528 -0.04,1.056 -0.04,1.585 -0.041,1.759 -0.05,1.957 -0.148,2.127 -0.224,2.26 -0.441,2.595 -0.704,2.567 -0.958,2.567 -1.21,2.311 -1.294,2.126 -1.517,1.635 -1.477,1.038 -1.477,0.511 l 0.03,-3.611 c 0.021,-2.555 0.043,-5.109 0.052,-7.665 0.003,-0.893 -0.026,-1.804 -0.054,-2.685 -0.015,-0.484 0.148,-1.773 -0.441,-2 -0.169,-0.068 -0.39,0.003 -0.634,0.188 -0.474,0.363 -0.93,0.76 -1.358,1.181 -1.855,1.822 -3.654,3.607 -5.347,5.307 -0.748,0.751 -1.445,1.552 -2.166,2.329 -0.464,0.499 -0.928,0.998 -1.404,1.484 -1.282,1.309 -2.57,2.61 -3.866,3.902 -0.308,0.307 -0.581,0.525 -0.859,0.686 -0.249,0.146 -0.516,0.18 -0.759,0.1 -0.237,-0.077 -0.428,-0.259 -0.539,-0.512 -0.157,-0.364 -0.245,-0.753 -0.247,-1.098 -0.014,-1.862 -0.012,-3.725 -0.01,-5.588 l 0,-3.362 c -10e-4,-3 -0.002,-6 0.006,-9.001 0.001,-0.308 0.088,-0.608 0.165,-0.835 0.062,-0.184 0.293,-0.388 0.504,-0.388 l 0.021,0 c 0.193,0.012 0.457,0.164 0.54,0.374 0.117,0.301 0.179,0.583 0.185,0.836 0.012,0.637 0.014,1.273 0.015,1.91 0.002,1.395 0.023,2.79 0.038,4.188 0.016,1.38 0.033,2.76 0.043,4.14 0.008,1.053 0.009,2.107 0.009,3.161 0,0.653 -0.035,1.305 -0.011,1.957 0.013,0.385 -0.036,1.226 0.42,1.409 0.169,0.068 0.408,-0.001 0.665,-0.194 1.081,-0.808 1.985,-1.897 2.92,-2.864 0.711,-0.732 1.422,-1.464 2.139,-2.191 1.049,-1.064 2.045,-2.18 3.094,-3.242 1.677,-1.694 3.359,-3.38 5.054,-5.056 0.543,-0.538 1.043,-0.977 1.527,-1.343 0.44,-0.334 0.781,-0.318 0.987,-0.248 0.546,0.188 0.72,0.87 0.72,1.383 l 0.006,3.643 c 0.003,1.907 0.005,3.814 0.011,5.721 0.003,0.639 0.063,1.277 0.066,1.916 0.007,1.252 0.006,2.507 0.004,3.761 C 0.048,-1.197 0.023,-0.598 0,0" />
        </g>
        <g
           transform="translate(335.7124,260.1014)"
           id="g4335"
           style="fill:#ffffff;fill-opacity:1">
          <path
             inkscape:connector-curvature="0"
             id="path4337"
             style="fill:#ffffff;fill-opacity:1;fill-rule:nonzero;stroke:none"
             d="m 0,0 c -1.309,0.416 -2.757,0.697 -4.558,0.884 -1.912,0.197 -3.443,0.552 -4.818,1.115 -0.729,0.298 -1.292,0.7 -1.723,1.227 -0.91,1.115 -0.935,2.419 -0.875,3.887 0.03,0.771 0.257,1.432 0.671,1.965 0.828,1.064 1.91,1.922 3.19,2.372 0.744,0.262 1.531,0.349 2.315,0.392 0.802,0.044 1.622,0.08 2.416,-0.066 1.59,-0.29 2.897,-0.971 3.908,-2.044 C 0.603,9.648 0.709,9.532 0.859,9.497 1.01,9.461 1.165,9.445 1.321,9.431 L 1.754,9.383 1.757,9.655 C 1.758,9.71 1.765,9.77 1.773,9.83 c 0.023,0.187 0.049,0.4 -0.073,0.568 -0.28,0.381 -0.593,0.774 -0.99,1.067 -2.437,1.791 -5.162,2.379 -8.092,1.752 -1.277,-0.273 -2.346,-0.97 -3.416,-1.667 -0.94,-0.612 -1.636,-1.496 -2.126,-2.7 -0.446,-1.095 -0.59,-2.26 -0.44,-3.563 0.218,-1.907 1.067,-3.294 2.595,-4.242 2.001,-1.242 4.206,-1.467 6.336,-1.684 1.309,-0.134 2.396,-0.257 3.48,-0.529 1.846,-0.463 3.122,-1.94 3.329,-3.855 C 2.442,-5.62 2.368,-6.278 2.247,-6.865 2.144,-7.362 1.962,-7.843 1.689,-8.271 1.434,-8.673 1.102,-9.022 0.717,-9.3 c -2.57,-1.853 -5.549,-2.244 -9.116,-1.189 -1.067,0.314 -1.927,1.048 -2.758,1.756 -0.193,0.164 -0.445,0.158 -0.676,0.223 l -0.327,0.091 0.018,-0.34 c 0.014,-0.258 -0.08,-0.553 0.107,-0.771 l 0.14,-0.165 c 0.374,-0.443 0.762,-0.901 1.25,-1.225 1.617,-1.07 3.227,-1.596 4.899,-1.596 0.642,0 1.296,-0.024 1.935,0.025 0.614,0.048 1.219,0.171 1.812,0.335 0.219,0.061 0.435,0.126 0.651,0.195 1.68,0.537 2.863,1.269 3.723,2.306 1.069,1.288 1.531,2.816 1.412,4.668 C 3.644,-2.748 2.051,-0.652 0,0" />
        </g>
        <g
           transform="translate(580.2858,248.8893)"
           id="g4339"
           style="fill:#ffffff;fill-opacity:1">
          <path
             inkscape:connector-curvature="0"
             id="path4341"
             style="fill:#ffffff;fill-opacity:1;fill-rule:nonzero;stroke:none"
             d="m 0,0 c -0.19,0.169 -0.38,0.337 -0.625,0.421 -0.277,0.085 -0.573,0.099 -0.861,0.102 -2.393,0.03 -4.787,0.059 -7.181,0.089 -0.709,0.008 -1.52,0.065 -1.953,0.627 -0.317,0.411 -0.328,0.973 -0.326,1.492 0.008,2.211 0.017,4.423 0.025,6.635 0.002,0.513 0.019,1.07 0.344,1.467 0.431,0.527 1.212,0.557 1.893,0.547 2.071,-0.03 4.142,-0.027 6.213,0.008 0.283,0.005 0.574,0.012 0.833,0.126 0.26,0.113 0.482,0.36 0.476,0.643 -0.004,0.274 -0.221,0.509 -0.472,0.619 -0.251,0.11 -0.533,0.12 -0.807,0.129 -2.09,0.062 -4.182,0.089 -6.273,0.079 -0.684,-0.004 -1.464,0.031 -1.901,0.557 -0.348,0.417 -0.359,1.011 -0.353,1.553 l 0.064,5.909 c 0.003,0.33 0.011,0.676 0.176,0.962 0.319,0.55 1.06,0.647 1.695,0.676 2.162,0.099 4.327,0.134 6.491,0.104 0.848,-0.012 1.823,0.022 2.356,0.681 -0.34,0.626 -1.189,0.71 -1.902,0.716 -2.492,0.024 -4.984,0.047 -7.476,0.07 -0.656,0.006 -1.355,0 -1.903,-0.359 -0.927,-0.607 -1.02,-1.905 -1.016,-3.013 0.02,-6.152 0.041,-12.303 0.062,-18.455 0.003,-0.913 0.044,-1.924 0.678,-2.58 0.658,-0.681 1.713,-0.734 2.66,-0.743 2.355,-0.023 4.71,-0.045 7.066,-0.067 0.834,-0.008 1.845,0.087 2.211,0.837 C 0.128,-0.114 0.064,-0.057 0,0" />
        </g>
        <g
           transform="translate(554.9516,249.0611)"
           id="g4343"
           style="fill:#ffffff;fill-opacity:1">
          <path
             inkscape:connector-curvature="0"
             id="path4345"
             style="fill:#ffffff;fill-opacity:1;fill-rule:nonzero;stroke:none"
             d="m 0,0 c -0.156,0.104 -0.322,0.192 -0.479,0.22 -0.408,0.073 -0.823,0.064 -1.233,0.103 -0.377,0.036 -0.869,0.204 -1.066,0.8 -0.367,1.099 -0.26,2.32 -0.272,3.464 -0.02,1.699 -0.022,3.425 -0.021,5.135 0.002,3.18 0.018,6.363 0.035,9.543 0,0.67 -0.016,1.344 0.08,2.009 0.096,0.656 0.522,1.073 1.201,1.176 0.381,0.057 0.771,0.078 1.143,0.187 0.187,0.056 0.313,0.202 0.425,0.331 0.095,0.111 0.203,0.209 0.31,0.309 -0.221,0.202 -0.433,0.437 -0.685,0.601 -0.185,0.121 -0.428,0.107 -0.64,0.106 -0.248,-0.002 -0.494,0.029 -0.742,0.031 -1.156,0.011 -2.311,0.02 -3.467,0.02 -0.556,0.001 -1.136,0.065 -1.696,-0.187 -0.16,-0.072 -0.502,-0.329 -0.476,-0.619 0.025,-0.273 0.329,-0.493 0.516,-0.569 0.5,-0.199 1.064,-0.097 1.572,-0.291 0.369,-0.141 0.659,-0.403 0.811,-0.77 0.17,-0.406 0.19,-0.884 0.192,-1.322 0.007,-1.579 0.007,-3.157 0.006,-4.734 -0.001,-1.082 -0.001,-2.164 0,-3.246 C -4.485,10.909 -4.484,9.519 -4.49,8.131 -4.494,7.282 -4.512,6.433 -4.53,5.584 -4.558,4.28 -4.532,2.97 -4.629,1.669 -4.686,0.918 -4.997,0.578 -5.775,0.415 -6.258,0.313 -6.757,0.311 -7.238,0.196 -7.439,0.148 -7.592,0.009 -7.728,-0.115 -7.778,-0.16 -7.826,-0.206 -7.878,-0.244 l -0.26,-0.197 c 0.275,-0.204 0.547,-0.415 0.831,-0.607 0.097,-0.064 0.206,-0.057 0.302,-0.053 l 1.382,-0.022 c 1.442,-0.024 2.885,-0.047 4.341,-0.058 0.312,0 0.655,0.069 0.964,0.193 0.094,0.038 0.698,0.707 0.696,0.709 C 0.268,-0.195 0.138,-0.092 0,0" />
        </g>
        <g
           transform="translate(364.5464,272.5746)"
           id="g4347"
           style="fill:#ffffff;fill-opacity:1">
          <path
             inkscape:connector-curvature="0"
             id="path4349"
             style="fill:#ffffff;fill-opacity:1;fill-rule:nonzero;stroke:none"
             d="m 0,0 c -0.117,0.141 -0.251,0.302 -0.443,0.379 -0.303,0.124 -0.646,0.144 -0.941,0.147 -1.144,0.012 -2.323,0.027 -3.487,0 C -5.451,0.512 -6.03,0.484 -6.61,0.456 -7.322,0.421 -8.058,0.386 -8.78,0.38 c -0.88,-0.005 -1.781,0.016 -2.65,0.038 -0.553,0.014 -1.104,0.029 -1.657,0.035 -0.386,0.009 -0.835,0.002 -1.262,-0.086 -0.133,-0.028 -0.247,-0.102 -0.35,-0.188 -0.09,-0.075 -0.182,-0.207 -0.288,-0.26 l -0.239,-0.187 c 0,0 0.235,-0.194 0.235,-0.194 0.219,-0.179 0.395,-0.479 0.707,-0.494 0.821,-0.038 1.655,-0.04 2.462,-0.042 0.381,-0.001 0.763,0.005 1.145,0.012 0.375,0.006 0.76,0.035 1.132,-0.036 0.862,-0.166 1.315,-0.819 1.342,-1.94 0.052,-2.042 0.079,-3.715 0.09,-5.266 0.01,-1.646 0.008,-3.293 0.006,-4.939 l 0.01,-3.643 c 0,-2.035 -0.001,-4.068 0.004,-6.103 10e-4,-0.256 0.042,-0.474 0.12,-0.648 0.063,-0.141 0.279,-0.429 0.527,-0.429 0.015,0 0.03,10e-4 0.046,0.003 0.228,0.032 0.482,0.245 0.555,0.464 0.112,0.337 0.168,0.663 0.168,0.967 -0.002,0.784 -0.063,1.567 -0.063,2.351 -0.011,1.494 -0.012,2.985 0,4.479 0.005,0.572 0.019,1.144 0.033,1.716 0.015,0.574 0.029,1.148 0.034,1.723 0.014,1.614 0.02,3.227 0.008,4.841 -0.005,0.71 -0.021,1.42 -0.036,2.13 -0.017,0.785 -0.033,1.57 -0.037,2.354 -0.006,1.178 0.347,1.617 1.452,1.808 0.567,0.099 1.17,0.106 1.754,0.114 0.493,0.006 0.986,0.022 1.478,0.029 0.482,0.006 0.98,0.013 1.472,0.054 0.261,0.022 0.441,0.229 0.624,0.392 0.032,0.028 0.276,0.226 0.284,0.218 C 0.215,-0.234 0.101,-0.122 0,0" />
        </g>
      </g>
    </g>
  </g>
</svg>
